<svg width="96" height="16" viewBox="0 0 96 16" fill="none" xmlns="http://www.w3.org/2000/svg">
<path d="M8 0L10.3511 4.76393L15.6085 5.52786L11.8042 9.23607L12.7023 14.4721L8 12L3.29772 14.4721L4.19577 9.23607L0.391548 5.52786L5.64886 4.76393L8 0Z" fill="#4C75E6"/>
<path d="M28 0L30.3511 4.76393L35.6085 5.52786L31.8042 9.23607L32.7023 14.4721L28 12L23.2977 14.4721L24.1958 9.23607L20.3915 5.52786L25.6489 4.76393L28 0Z" fill="#4C75E6"/>
<path d="M48 0L50.3511 4.76393L55.6085 5.52786L51.8042 9.23607L52.7023 14.4721L48 12L43.2977 14.4721L44.1958 9.23607L40.3915 5.52786L45.6489 4.76393L48 0Z" fill="#4C75E6"/>
<path d="M68 0L70.3511 4.76393L75.6085 5.52786L71.8042 9.23607L72.7023 14.4721L68 12L63.2977 14.4721L64.1958 9.23607L60.3915 5.52786L65.6489 4.76393L68 0Z" fill="#4C75E6"/>
<path opacity="0.3" d="M88 1.12978L89.9028 4.98522L90.0191 5.22094L90.2792 5.25874L94.534 5.87698L91.4552 8.87803L91.267 9.06151L91.3114 9.32059L92.0382 13.5581L88.2327 11.5574L88 11.4351L87.7673 11.5574L83.9618 13.5581L84.6886 9.32059L84.733 9.06151L84.5448 8.87802L81.466 5.87698L85.7208 5.25874L85.9809 5.22094L86.0972 4.98522L88 1.12978Z" stroke="#5C6581"/>
</svg>
