<svg width="72" height="72" viewBox="0 0 72 72" fill="none" xmlns="http://www.w3.org/2000/svg">
<path d="M68.9374 49.2181V49.4681H69.1874H70.5936C71.2322 49.4681 71.7498 49.9862 71.7498 50.6243V54.8431C71.7498 57.0314 69.9694 58.8118 67.7811 58.8118H63.5618H63.3118V59.0618V67.7811C63.3118 69.9694 61.5314 71.7498 59.3431 71.7498H42.5598C40.3716 71.7498 38.5911 69.9694 38.5911 67.7811V59.0618V58.8118H38.3411H4.21874C2.03046 58.8118 0.25 57.0314 0.25 54.8431V50.6243C0.25 49.9862 0.76765 49.4681 1.40625 49.4681H2.81249H3.06249V49.2181V4.21874C3.06249 2.03046 4.84296 0.25 7.03124 0.25H64.9686C67.1564 0.25 68.9374 2.03048 68.9374 4.21874V49.2181ZM63.3118 49.2181V49.4681H63.5618H66.3749H66.6249V49.2181V46.4056V46.1556H66.3749H63.5618H63.3118V46.4056V49.2181ZM66.3749 5.87499H66.6249V5.62499V4.21874C66.6249 3.30497 65.8817 2.56249 64.9686 2.56249H7.03124C6.11753 2.56249 5.37499 3.30504 5.37499 4.21874V5.62499V5.87499H5.62499H66.3749ZM5.62499 46.1556H5.37499V46.4056V49.2181V49.4681H5.62499H27.5624C28.201 49.4681 28.7187 49.9862 28.7187 50.6243V50.8743H28.9687H38.3411H38.5911V50.6243V46.4056V46.1556H38.3411H19.6875C19.0488 46.1556 18.5312 45.638 18.5312 44.9994C18.5312 44.3607 19.0488 43.8431 19.6875 43.8431H38.3411H38.5911V43.5931V34.0312C38.5911 33.4192 38.7306 32.8397 38.9791 32.3216L39.0556 32.1619L38.9304 32.0367L32.8929 25.9992L32.4661 25.5724V26.176V28.4062C32.4661 29.0443 31.948 29.5624 31.3099 29.5624C30.6713 29.5624 30.1536 29.0444 30.1536 28.4062V22.7812C30.1536 22.1425 30.6712 21.625 31.3099 21.625H36.9343C37.573 21.625 38.0906 22.1425 38.0906 22.7812C38.0906 23.4199 37.573 23.9374 36.9343 23.9374H34.7046H34.1011L34.5279 24.3642L40.5654 30.4017L40.6906 30.527L40.8503 30.4503C41.3678 30.2019 41.9478 30.0624 42.5598 30.0624H59.3431C61.5314 30.0624 63.3118 31.8429 63.3118 34.0312V43.5931V43.8431H63.5618H66.3749H66.6249V43.5931V8.43748V8.18748H66.3749H5.62499H5.37499V8.43748V43.5931V43.8431H5.62499H7.03124C7.6699 43.8431 8.18748 44.3607 8.18748 44.9994C8.18748 45.638 7.6699 46.1556 7.03124 46.1556H5.62499ZM2.81249 51.7806H2.56249V52.0306V54.8431C2.56249 55.7568 3.30504 56.4993 4.21874 56.4993H38.3411H38.5911V56.2493V53.4368V53.1868H38.3411H28.9687C28.0229 53.1868 27.1943 52.6719 26.7499 51.9052L26.6776 51.7806H26.5336H2.81249ZM41.3304 34.4367L40.9036 34.0099V34.6135V67.7811C40.9036 68.6948 41.6461 69.4374 42.5598 69.4374H59.3431C60.2568 69.4374 60.9993 68.6948 60.9993 67.7811V34.0312C60.9993 33.1181 60.2568 32.3749 59.3431 32.3749H43.1421H42.5386L42.9653 32.8017L49.4143 39.2507L49.8411 39.6774V39.0739V36.8442C49.8411 36.2056 50.3587 35.688 50.9973 35.688C51.636 35.688 52.1536 36.2056 52.1536 36.8442V42.4687C52.1536 43.1073 51.636 43.6249 50.9973 43.6249H45.3723C44.7342 43.6249 44.2161 43.1073 44.2161 42.4687C44.2161 41.8301 44.7342 41.3124 45.3723 41.3124H47.6026H48.2061L47.7793 40.8856L41.3304 34.4367ZM63.3118 56.2493V56.4993H63.5618H67.7811C68.6942 56.4993 69.4374 55.7569 69.4374 54.8431V52.0306V51.7806H69.1874H63.5618H63.3118V52.0306V56.2493Z" fill="#4C75E6" stroke="#F8F9FE" stroke-width="0.5"/>
<path opacity="0.5" d="M50.9522 64.9688H50.9511C50.1744 64.9688 49.5454 65.5983 49.5454 66.375C49.5454 67.1512 50.1755 67.7812 50.9522 67.7812C51.7289 67.7812 52.3585 67.1512 52.3585 66.375C52.3585 65.5983 51.7289 64.9688 50.9522 64.9688Z" fill="#4C75E6"/>
<path opacity="0.5" d="M54.4218 14.0632H62.1556C62.9324 14.0632 63.5619 13.4337 63.5619 12.657C63.5619 11.8802 62.9324 11.2507 62.1556 11.2507H54.4224C53.6456 11.2507 53.0161 11.8802 53.0161 12.657C53.0156 13.4337 53.6451 14.0632 54.4218 14.0632Z" fill="#4C75E6"/>
<path opacity="0.5" d="M48.0943 14.0632C48.871 14.0632 49.5005 13.4337 49.5005 12.657C49.5005 11.8802 48.871 11.2507 48.0943 11.2507H48.0938C47.317 11.2507 46.6875 11.8802 46.6875 12.657C46.6875 13.4337 47.3176 14.0632 48.0943 14.0632Z" fill="#4C75E6"/>
<path opacity="0.5" d="M13.3599 43.5931H13.3588C12.5821 43.5931 11.9531 44.2227 11.9531 44.9994C11.9531 45.7761 12.5832 46.4056 13.3599 46.4056C14.1367 46.4056 14.7662 45.7761 14.7662 44.9994C14.7662 44.2227 14.1367 43.5931 13.3599 43.5931Z" fill="#4C75E6"/>
</svg>
