<svg width="74" height="74" viewBox="0 0 74 74" fill="none" xmlns="http://www.w3.org/2000/svg">
<g clip-path="url(#clip0)">
<path d="M25.0192 2.16797V2.01797H24.8692H20.7682C18.8908 2.01797 17.3635 3.54376 17.3635 5.41992V8.79819V27.3005V50.8023C17.3635 51.318 16.945 51.7363 16.4286 51.7363C15.9122 51.7363 15.4938 51.318 15.4938 50.8023L15.4939 27.3005L15.4938 8.79819V5.41992C15.4938 2.51426 17.8598 0.15 20.7682 0.15H53.1702C56.0785 0.15 58.4446 2.51426 58.4446 5.41992V9.23106C58.4446 9.74675 58.0261 10.165 57.5097 10.165C56.9934 10.165 56.5749 9.74675 56.5749 9.23106V5.41992C56.5749 3.54376 55.0475 2.01797 53.1702 2.01797H49.0262H48.8762V2.16797V5.41992C48.8762 6.73154 47.8077 7.79922 46.4947 7.79922H27.4007C26.0875 7.79922 25.0192 6.73154 25.0192 5.41992V2.16797ZM47.0063 2.16797V2.01797H46.8563H27.0391H26.8891V2.16797V5.41992C26.8891 5.70201 27.1185 5.93125 27.4007 5.93125H46.4947C46.7769 5.93125 47.0063 5.70201 47.0063 5.41992V2.16797Z" fill="#4C75E6" stroke="#F8F9FE" stroke-width="0.3"/>
<path opacity="0.4" d="M43.6808 67.0625H30.2567C29.6575 67.0625 29.1719 67.5478 29.1719 68.1465C29.1719 68.7451 29.6576 69.2305 30.2567 69.2305H43.6808C44.28 69.2305 44.7656 68.7451 44.7656 68.1465C44.7656 67.5478 44.2799 67.0625 43.6808 67.0625Z" fill="#4C75E6"/>
<mask id="path-4-inside-1" fill="white">
<path d="M67.8522 36.8555H58.5946V13.8561C58.5946 13.2574 58.1088 12.7721 57.5097 12.7721C56.9106 12.7721 56.4249 13.2574 56.4249 13.8561V36.8555H56.2802C52.8904 36.8555 50.1326 39.6113 50.1326 42.9988V49.2145C50.1326 52.602 52.8904 55.3578 56.2802 55.3578H56.4249V62.5098H51.5217V58.3646C51.5217 53.2161 47.3295 49.0275 42.1767 49.0275H40.2268V46.9718C43.5664 45.9134 46.2062 43.2696 47.2571 39.9291C47.4482 39.9714 47.6427 39.9931 47.8384 39.9931C49.8577 39.9931 51.3664 37.4758 51.3664 35.225C51.3664 33.4655 50.4526 32.2834 49.3031 31.7506C50.3076 27.6621 49.3942 22.8336 46.114 20.3006C45.64 19.9345 44.9585 20.0218 44.5923 20.4954C44.2259 20.969 44.3132 21.6498 44.7872 22.016C46.1451 23.0646 46.9409 24.5189 47.3675 26.7314C47.7763 28.849 47.3196 30.8428 47.0714 31.6921C46.4726 32.0345 46.0812 32.6515 45.8502 33.3484C44.4093 30.9303 41.7907 29.9462 39.2472 28.9904C37.0963 28.1822 35.0648 27.4187 33.7449 25.8509C32.7164 24.6289 31.6216 24.7458 31.0604 24.9246C29.4065 25.451 28.3245 27.7666 28.2089 29.1653C28.1739 29.5607 28.0358 31.3361 27.8607 32.7966C27.6263 32.3327 27.3004 31.9392 26.8649 31.6909C25.8934 28.399 26.4582 24.2336 28.9921 22.1429C30.6622 20.7651 33.346 20.0664 36.9691 20.0664C38.4753 20.0664 39.8307 20.1867 40.9976 20.4236C41.5851 20.5425 42.1575 20.1639 42.2769 19.5773C42.3962 18.9905 42.017 18.4184 41.4299 18.2991C40.121 18.0333 38.6202 17.8985 36.9691 17.8985C32.7702 17.8985 29.709 18.7401 27.6105 20.4711C25.4338 22.2671 24.7587 24.6699 24.4403 26.3209C24.0181 28.5084 24.3372 30.538 24.6352 31.7508C23.4859 32.2835 22.5719 33.4656 22.5719 35.2252C22.5719 37.4759 24.0807 39.9932 26.0999 39.9932C26.2956 39.9932 26.4901 39.9714 26.6812 39.9291C27.7324 43.2693 30.3733 45.9131 33.7173 46.9717V49.0275H31.7616C26.6088 49.0275 22.4167 53.2161 22.4167 58.3646V62.5098H17.5135V55.5348C17.5135 54.9362 17.0277 54.4509 16.4286 54.4509C15.8295 54.4509 15.3438 54.9362 15.3438 55.5348V68.5801C15.3438 71.5687 17.7771 74 20.7682 74H53.17C56.1611 74 58.5944 71.5687 58.5944 68.5801V55.3579H61.1321V58.8962C61.1321 60.0795 62.6455 60.5751 63.3488 59.6287L66.5237 55.3578H67.8522C71.2421 55.3578 73.9999 52.6019 73.9999 49.2145V42.9988C73.9999 39.6113 71.2421 36.8555 67.8522 36.8555ZM35.8873 51.1954H38.0571V56.675C38.0571 57.2728 37.5705 57.759 36.9723 57.759C36.3741 57.759 35.8874 57.2728 35.8874 56.675V51.1954H35.8873ZM47.8381 37.8253C47.7886 37.8253 47.7404 37.8179 47.6942 37.8053C47.7806 36.9565 47.739 36.4687 47.7498 35.1225C47.7501 35.1134 47.7504 35.1045 47.7504 35.0954C47.756 34.4849 47.9397 33.8216 48.1019 33.6212C48.6448 33.7293 49.1963 34.1928 49.1963 35.2252C49.1964 36.5952 48.2739 37.8253 47.8381 37.8253ZM26.0999 37.8253C25.6643 37.8253 24.7417 36.5952 24.7417 35.2252C24.7417 34.1928 25.2933 33.7293 25.8361 33.6212C25.9983 33.8215 26.182 34.4846 26.1876 35.0921C26.1876 35.103 26.1879 35.1139 26.1882 35.1247C26.1991 36.4593 26.1573 36.9549 26.2439 37.8052C26.1976 37.8179 26.1495 37.8253 26.0999 37.8253ZM28.3579 36.7066V36.2584C28.7969 36.1649 29.1949 35.9243 29.4634 35.4872C30.0092 34.597 30.2094 30.9551 30.3711 29.3443C30.4429 28.4758 31.1987 27.1557 31.7189 26.9901C31.8248 26.957 32.0098 27.1579 32.0841 27.246C33.7693 29.2482 36.1656 30.1486 38.4831 31.0194C41.1789 32.0325 43.5071 32.9073 44.3807 35.2932C44.5665 35.8008 44.9942 36.1814 45.58 36.2914V36.7065C45.58 41.4475 41.7197 45.3046 36.9632 45.3046C32.2189 45.3048 28.3579 41.4482 28.3579 36.7066ZM38.0568 47.4188V49.0275H35.887V47.4185C36.6069 47.4907 37.3365 47.491 38.0568 47.4188ZM24.5864 58.3646C24.5864 54.4115 27.8051 51.1954 31.7615 51.1954H33.7174V56.675C33.7174 58.4682 35.1775 59.927 36.9721 59.927C38.7668 59.927 40.2268 58.4682 40.2268 56.675V51.1954H42.1764C46.1328 51.1954 49.3515 54.4115 49.3515 58.3646V62.4837H24.5864V58.3646ZM53.17 71.832H20.768C18.9734 71.832 17.5133 70.3733 17.5133 68.5801V64.6777H56.4246V68.5801C56.4247 70.3733 54.9647 71.832 53.17 71.832ZM71.83 49.2145C71.83 51.4066 70.0455 53.1898 67.8521 53.1898H65.978C65.6347 53.1898 65.3117 53.3521 65.107 53.6275L63.302 56.0557V54.2738C63.302 53.6751 62.8162 53.1898 62.2171 53.1898H56.2801C54.0867 53.1898 52.3021 51.4064 52.3021 49.2145V42.9988C52.3021 40.8068 54.0867 39.0234 56.2801 39.0234H67.8522C70.0457 39.0234 71.8302 40.8068 71.8302 42.9988V49.2145H71.83Z"/>
</mask>
<path d="M67.8522 36.8555H58.5946V13.8561C58.5946 13.2574 58.1088 12.7721 57.5097 12.7721C56.9106 12.7721 56.4249 13.2574 56.4249 13.8561V36.8555H56.2802C52.8904 36.8555 50.1326 39.6113 50.1326 42.9988V49.2145C50.1326 52.602 52.8904 55.3578 56.2802 55.3578H56.4249V62.5098H51.5217V58.3646C51.5217 53.2161 47.3295 49.0275 42.1767 49.0275H40.2268V46.9718C43.5664 45.9134 46.2062 43.2696 47.2571 39.9291C47.4482 39.9714 47.6427 39.9931 47.8384 39.9931C49.8577 39.9931 51.3664 37.4758 51.3664 35.225C51.3664 33.4655 50.4526 32.2834 49.3031 31.7506C50.3076 27.6621 49.3942 22.8336 46.114 20.3006C45.64 19.9345 44.9585 20.0218 44.5923 20.4954C44.2259 20.969 44.3132 21.6498 44.7872 22.016C46.1451 23.0646 46.9409 24.5189 47.3675 26.7314C47.7763 28.849 47.3196 30.8428 47.0714 31.6921C46.4726 32.0345 46.0812 32.6515 45.8502 33.3484C44.4093 30.9303 41.7907 29.9462 39.2472 28.9904C37.0963 28.1822 35.0648 27.4187 33.7449 25.8509C32.7164 24.6289 31.6216 24.7458 31.0604 24.9246C29.4065 25.451 28.3245 27.7666 28.2089 29.1653C28.1739 29.5607 28.0358 31.3361 27.8607 32.7966C27.6263 32.3327 27.3004 31.9392 26.8649 31.6909C25.8934 28.399 26.4582 24.2336 28.9921 22.1429C30.6622 20.7651 33.346 20.0664 36.9691 20.0664C38.4753 20.0664 39.8307 20.1867 40.9976 20.4236C41.5851 20.5425 42.1575 20.1639 42.2769 19.5773C42.3962 18.9905 42.017 18.4184 41.4299 18.2991C40.121 18.0333 38.6202 17.8985 36.9691 17.8985C32.7702 17.8985 29.709 18.7401 27.6105 20.4711C25.4338 22.2671 24.7587 24.6699 24.4403 26.3209C24.0181 28.5084 24.3372 30.538 24.6352 31.7508C23.4859 32.2835 22.5719 33.4656 22.5719 35.2252C22.5719 37.4759 24.0807 39.9932 26.0999 39.9932C26.2956 39.9932 26.4901 39.9714 26.6812 39.9291C27.7324 43.2693 30.3733 45.9131 33.7173 46.9717V49.0275H31.7616C26.6088 49.0275 22.4167 53.2161 22.4167 58.3646V62.5098H17.5135V55.5348C17.5135 54.9362 17.0277 54.4509 16.4286 54.4509C15.8295 54.4509 15.3438 54.9362 15.3438 55.5348V68.5801C15.3438 71.5687 17.7771 74 20.7682 74H53.17C56.1611 74 58.5944 71.5687 58.5944 68.5801V55.3579H61.1321V58.8962C61.1321 60.0795 62.6455 60.5751 63.3488 59.6287L66.5237 55.3578H67.8522C71.2421 55.3578 73.9999 52.6019 73.9999 49.2145V42.9988C73.9999 39.6113 71.2421 36.8555 67.8522 36.8555ZM35.8873 51.1954H38.0571V56.675C38.0571 57.2728 37.5705 57.759 36.9723 57.759C36.3741 57.759 35.8874 57.2728 35.8874 56.675V51.1954H35.8873ZM47.8381 37.8253C47.7886 37.8253 47.7404 37.8179 47.6942 37.8053C47.7806 36.9565 47.739 36.4687 47.7498 35.1225C47.7501 35.1134 47.7504 35.1045 47.7504 35.0954C47.756 34.4849 47.9397 33.8216 48.1019 33.6212C48.6448 33.7293 49.1963 34.1928 49.1963 35.2252C49.1964 36.5952 48.2739 37.8253 47.8381 37.8253ZM26.0999 37.8253C25.6643 37.8253 24.7417 36.5952 24.7417 35.2252C24.7417 34.1928 25.2933 33.7293 25.8361 33.6212C25.9983 33.8215 26.182 34.4846 26.1876 35.0921C26.1876 35.103 26.1879 35.1139 26.1882 35.1247C26.1991 36.4593 26.1573 36.9549 26.2439 37.8052C26.1976 37.8179 26.1495 37.8253 26.0999 37.8253ZM28.3579 36.7066V36.2584C28.7969 36.1649 29.1949 35.9243 29.4634 35.4872C30.0092 34.597 30.2094 30.9551 30.3711 29.3443C30.4429 28.4758 31.1987 27.1557 31.7189 26.9901C31.8248 26.957 32.0098 27.1579 32.0841 27.246C33.7693 29.2482 36.1656 30.1486 38.4831 31.0194C41.1789 32.0325 43.5071 32.9073 44.3807 35.2932C44.5665 35.8008 44.9942 36.1814 45.58 36.2914V36.7065C45.58 41.4475 41.7197 45.3046 36.9632 45.3046C32.2189 45.3048 28.3579 41.4482 28.3579 36.7066ZM38.0568 47.4188V49.0275H35.887V47.4185C36.6069 47.4907 37.3365 47.491 38.0568 47.4188ZM24.5864 58.3646C24.5864 54.4115 27.8051 51.1954 31.7615 51.1954H33.7174V56.675C33.7174 58.4682 35.1775 59.927 36.9721 59.927C38.7668 59.927 40.2268 58.4682 40.2268 56.675V51.1954H42.1764C46.1328 51.1954 49.3515 54.4115 49.3515 58.3646V62.4837H24.5864V58.3646ZM53.17 71.832H20.768C18.9734 71.832 17.5133 70.3733 17.5133 68.5801V64.6777H56.4246V68.5801C56.4247 70.3733 54.9647 71.832 53.17 71.832ZM71.83 49.2145C71.83 51.4066 70.0455 53.1898 67.8521 53.1898H65.978C65.6347 53.1898 65.3117 53.3521 65.107 53.6275L63.302 56.0557V54.2738C63.302 53.6751 62.8162 53.1898 62.2171 53.1898H56.2801C54.0867 53.1898 52.3021 51.4064 52.3021 49.2145V42.9988C52.3021 40.8068 54.0867 39.0234 56.2801 39.0234H67.8522C70.0457 39.0234 71.8302 40.8068 71.8302 42.9988V49.2145H71.83Z" fill="#4C75E6" stroke="#F8F9FE" stroke-width="0.6" mask="url(#path-4-inside-1)"/>
<path opacity="0.4" d="M66.7672 42.2754H57.7987C57.1995 42.2754 56.7139 42.7607 56.7139 43.3594C56.7139 43.958 57.1996 44.4434 57.7987 44.4434H66.7672C67.3664 44.4434 67.852 43.958 67.852 43.3594C67.852 42.7607 67.3664 42.2754 66.7672 42.2754Z" fill="#4C75E6"/>
<path opacity="0.4" d="M66.7672 46.6113H57.7987C57.1995 46.6113 56.7139 47.0967 56.7139 47.6953C56.7139 48.294 57.1996 48.7793 57.7987 48.7793H66.7672C67.3664 48.7793 67.852 48.294 67.852 47.6953C67.852 47.0967 67.3664 46.6113 66.7672 46.6113Z" fill="#4C75E6"/>
</g>
<defs>
<clipPath id="clip0">
<rect width="74" height="74" fill="white"/>
</clipPath>
</defs>
</svg>
