<svg width="46" height="43" viewBox="0 0 46 43" fill="none" xmlns="http://www.w3.org/2000/svg">
<path opacity="0.3" d="M22.6826 43C10.1957 43 0 33.344 0 21.4819C0 9.65601 10.1957 0 22.6826 0C35.2076 0 45.3652 9.65601 45.3652 21.4819C45.4033 33.344 35.2076 43 22.6826 43ZM22.6826 0.904121C10.7303 0.904121 0.954654 10.1623 0.954654 21.4819C0.954654 32.8015 10.6921 42.0597 22.6826 42.0597C34.673 42.0597 44.4105 32.8377 44.4105 21.4819C44.4105 10.1262 34.673 0.904121 22.6826 0.904121Z" fill="white"/>
<path d="M35.5899 11.3558C35.0171 11.1388 31.5421 10.3431 30.4347 10.8133C29.8238 11.0664 28.1054 12.4045 26.6925 13.5256C26.1579 13.0555 25.3178 12.5854 23.9049 12.3684C21.9956 12.0429 19.1698 11.3919 14.893 13.815C10.4252 16.3827 7.56123 18.2271 6.56839 18.878C6.49202 18.9142 4.85001 20.1076 4.69727 21.6989C5.11731 20.5416 6.22471 19.7822 6.30108 19.746C7.21755 19.1312 10.3488 17.6484 14.3202 15.1531C17.6424 13.0917 19.8572 12.8023 21.5374 12.947C18.9025 13.598 17.3369 15.2977 16.4204 16.889C11.9526 19.4205 9.12686 21.3011 8.17221 21.9159C8.09583 21.9521 6.45383 23.1455 6.30108 24.7367C6.72113 23.5795 7.82853 22.82 7.9049 22.7838C8.82137 22.169 11.8381 20.7225 15.7331 18.2994C15.5039 18.878 15.3512 19.3844 15.2748 19.7098C13.4801 19.9268 12.0672 21.3734 12.0672 23.1455C12.0672 24.3389 12.6782 25.3877 13.671 26.0025C13.1746 26.328 12.7927 26.5812 12.5636 26.7258C12.4872 26.762 10.8452 27.9554 10.6925 29.5467C11.1125 28.3894 12.2199 27.6299 12.2963 27.5938C12.6782 27.3406 13.4037 26.9428 14.4347 26.4003C14.8548 26.545 15.2748 26.6173 15.7331 26.6173C16.7641 26.6173 17.7187 26.2195 18.3679 25.5324C18.9407 26.4727 19.5135 27.5938 20.1245 28.6426C18.2152 29.7998 16.955 30.6316 16.3822 31.0294C16.3059 31.0656 14.6639 32.259 14.5111 33.8503C14.9312 32.693 16.0386 31.9336 16.1149 31.8974C16.7259 31.4634 18.3679 30.6678 20.5827 29.402C21.1937 30.3785 21.881 31.2826 22.5684 31.9697C22.8739 32.259 23.2557 32.5122 23.6758 32.7292C22.7975 34.3204 20.0863 36.6711 18.9789 37.6114V37.6476C18.9789 37.6476 23.2939 35.2969 25.2032 33.3801C26.4634 33.778 27.7235 33.9226 28.4491 33.9949C29.671 34.1034 29.671 33.2717 29.671 32.8015C29.671 32.3675 29.8619 31.3911 29.4801 31.0294C29.4801 30.3061 29.0982 29.619 28.7545 29.1489C28.6018 28.4617 28.4872 27.7384 28.4491 26.979L29.9001 27.3406C29.9383 27.3406 29.9383 27.3406 29.9765 27.3768C30.0911 27.9193 30.6639 28.3894 31.4276 28.5341L31.5421 28.5702C32.4968 28.7149 33.3369 28.3171 33.4514 27.6299C33.566 26.9428 32.9168 26.2557 32.0004 26.111L31.8858 26.0748C31.2366 25.9664 30.6257 26.1472 30.282 26.4727C30.2438 26.4727 30.2056 26.4365 30.1674 26.4365L28.4872 26.0025C28.4872 25.9302 28.4872 25.8217 28.5254 25.7494C28.8691 23.037 30.0911 21.6627 32.3822 19.312C32.8405 18.8419 33.2223 18.4079 33.6042 18.0101C33.6424 18.0101 33.6806 17.9739 33.6806 17.9739C33.6806 17.9739 33.6806 17.9739 33.7187 17.9378C34.4443 17.5761 35.3989 16.9613 35.5135 16.0572C35.8954 15.8402 36.1627 15.5147 36.239 14.9722C36.5445 12.947 36.1627 11.5727 35.5899 11.3558ZM24.0958 13.4895C24.7832 13.815 25.165 14.2128 25.3942 14.5744C25.0123 14.8999 24.7832 15.0807 24.7832 15.0807C24.7832 15.0807 24.7068 15.1169 24.6304 15.1892C23.5994 15.0084 22.3393 14.8999 20.7736 15.1892C21.9574 14.2851 23.1794 13.7788 24.0958 13.4895ZM18.3297 20.614C18.0624 20.3608 17.7569 20.1438 17.3751 19.963C17.8715 18.4441 18.6352 17.2868 19.4371 16.3827C21.1173 15.804 22.4156 15.804 23.4849 15.9487C22.7211 16.4188 21.881 16.3827 20.9646 17.3953C20.1627 18.2994 19.0553 19.529 18.3297 20.614ZM28.3345 32.91C27.1889 32.8015 24.5159 32.3314 22.9502 30.9571C21.4228 29.5828 20.239 26.6896 19.1316 24.8452C19.0934 24.7367 19.0171 24.6644 18.9789 24.5921C18.9789 24.5559 19.0171 24.5198 19.0171 24.4836L23.3703 25.5685C23.1794 27.3045 22.8739 28.3171 23.5994 29.5105C24.3631 30.8124 27.9144 31.3911 27.9144 31.3911C28.6018 31.4634 29.0218 31.4634 29.0218 31.7527C29.0982 32.0059 29.251 32.9823 28.3345 32.91ZM27.9526 30.053C27.7999 30.3423 27.6471 30.5955 27.6471 30.5955C27.2271 30.5231 26.7307 30.4146 26.2724 30.27C26.2343 29.619 26.3106 28.751 26.998 28.1362C26.998 28.1362 25.5087 28.4979 24.6686 29.3658C24.6686 29.3658 24.6686 29.3658 24.6304 29.3297C23.6376 28.3171 24.0576 27.9916 24.2868 25.7855C24.2868 25.7494 24.2868 25.7494 24.2868 25.7132L27.2653 26.4727C27.3035 27.7746 27.6853 29.0042 28.029 29.9445C27.9908 30.0168 27.9526 30.0168 27.9526 30.053ZM30.893 19.1674C28.7927 21.4819 27.609 22.82 27.2653 25.4962C27.2653 25.4962 27.2653 25.4962 27.2653 25.5324L24.4395 24.8091C24.9741 23.1093 26.3488 21.7712 27.609 19.9992C28.7545 18.3356 29.7474 16.9975 30.3202 16.2742C30.9693 17.1421 31.9622 17.7931 31.9622 17.7931C31.6567 17.1783 31.8094 16.4188 32.0004 15.8402C32.0767 15.8764 32.1913 15.9125 32.2677 15.9487C32.5732 16.0572 33.1078 16.1657 33.6424 16.238C33.0696 16.8528 32.1149 17.8654 30.893 19.1674ZM30.893 15.6955C30.9312 15.6955 30.9693 15.6594 31.0457 15.6594L30.893 15.6955ZM35.0934 14.5744C34.788 16.2742 32.1913 15.0084 31.313 14.7191C30.4347 14.4298 29.3655 15.9125 29.06 16.3827C28.7545 16.8528 27.6471 18.0101 26.3106 19.8907C25.1269 21.5542 23.9431 22.9647 23.5612 24.5921L19.3607 23.5433C19.3989 23.3986 19.3989 23.2178 19.3989 23.0732C19.3989 22.3499 19.1698 21.6627 18.7498 21.1203C19.4753 20.0715 20.239 18.9504 21.1173 18.0101C21.9956 17.0698 22.9121 17.6484 23.5994 17.1421C24.3249 16.6358 25.2796 15.6232 25.2796 15.6232C25.2796 15.6232 29.4037 12.4407 30.3965 12.0429C30.6638 11.9344 31.0839 11.8982 31.5421 11.8982C31.7331 12.3322 32.0767 12.8385 32.344 13.164C32.8405 13.7788 33.8333 14.2128 34.597 13.7788C34.8643 13.6341 35.0553 13.381 35.208 13.1278C35.2462 13.4172 35.208 13.8873 35.0934 14.5744Z" fill="white"/>
<rect y="21" width="1" height="1" fill="#C4C4C4"/>
</svg>
