<svg width="152" height="24" viewBox="0 0 152 24" fill="none" xmlns="http://www.w3.org/2000/svg">
<path d="M12 0L15.5267 7.1459L23.4127 8.2918L17.7063 13.8541L19.0534 21.7082L12 18L4.94658 21.7082L6.29366 13.8541L0.587322 8.2918L8.47329 7.1459L12 0Z" fill="#4C75E6"/>
<path d="M44 0L47.5267 7.1459L55.4127 8.2918L49.7063 13.8541L51.0534 21.7082L44 18L36.9466 21.7082L38.2937 13.8541L32.5873 8.2918L40.4733 7.1459L44 0Z" fill="#4C75E6"/>
<path d="M76 0L79.5267 7.1459L87.4127 8.2918L81.7063 13.8541L83.0534 21.7082L76 18L68.9466 21.7082L70.2937 13.8541L64.5873 8.2918L72.4733 7.1459L76 0Z" fill="#4C75E6"/>
<path d="M108 0L111.527 7.1459L119.413 8.2918L113.706 13.8541L115.053 21.7082L108 18L100.947 21.7082L102.294 13.8541L96.5873 8.2918L104.473 7.1459L108 0Z" fill="#4C75E6"/>
<path opacity="0.3" d="M140 1.12978L143.078 7.36718L143.195 7.6029L143.455 7.6407L150.338 8.64092L145.357 13.4961L145.169 13.6795L145.214 13.9386L146.389 20.7942L140.233 17.5574L140 17.4351L139.767 17.5574L133.611 20.7942L134.786 13.9386L134.831 13.6795L134.643 13.4961L129.662 8.64092L136.545 7.6407L136.805 7.6029L136.922 7.36718L140 1.12978Z" stroke="#5C6581"/>
<path fill-rule="evenodd" clip-rule="evenodd" d="M139.413 0L135.886 7.1459L128 8.2918L133.706 13.8541L132.359 21.7082L139.413 18V0Z" fill="#4C75E6"/>
</svg>
