<svg width="40" height="40" viewBox="0 0 40 40" fill="none" xmlns="http://www.w3.org/2000/svg">
<path d="M19.9999 0C31.0462 0 40 8.95499 40 20.0001C40 31.0451 31.0462 40 19.9999 40C8.95362 40 0 31.045 0 20.0001C0 8.95513 8.95376 0 19.9999 0Z" fill="white"/>
<path d="M19.5176 16.2513C20.1501 16.2513 20.6452 16.05 21.0077 15.7638C21.3677 15.4763 21.5477 15.0851 21.5477 14.5826V11.55C21.5477 11.1038 21.364 10.735 20.9977 10.4513C20.6289 10.1675 20.1576 10.0263 19.5801 10.0263C18.9489 10.0263 18.4439 10.1601 18.0702 10.4288C17.6952 10.6987 17.5076 11.0587 17.5076 11.515V14.5575C17.5076 15.0574 17.6901 15.4524 18.0551 15.7487C18.42 16.045 18.909 16.2513 19.5176 16.2513ZM18.8565 11.6626C18.8565 11.5476 18.9165 11.4551 19.0353 11.3814C19.1553 11.3102 19.3103 11.2751 19.5003 11.2751C19.7078 11.2751 19.8753 11.3102 20.0016 11.3814C20.1292 11.4551 20.1917 11.5477 20.1917 11.6626V14.5451C20.1917 14.6876 20.1292 14.8001 20.0041 14.8814C19.8792 14.9614 19.7117 15.0026 19.5003 15.0026C19.2941 15.0026 19.1341 14.9639 19.0228 14.8826C18.9128 14.8038 18.8565 14.6913 18.8565 14.5451V11.6626ZM23.7027 16.2476C23.9252 16.2476 24.1515 16.12 24.3865 15.9926C24.6241 15.8625 24.8502 15.6725 25.0678 15.4251V16.0989H26.2491V10.0175H25.0678V14.6338C24.9579 14.7651 24.8354 14.8738 24.7041 14.96C24.5704 15.045 24.4604 15.0888 24.3742 15.0888C24.263 15.0888 24.1817 15.0575 24.1342 14.9913C24.0842 14.9276 24.0567 14.8238 24.0567 14.6813V10.0188H22.8779V15.1001C22.8779 15.4626 22.9492 15.7339 23.0854 15.9139C23.224 16.095 23.429 16.2476 23.7027 16.2476ZM27.1377 18.7614H12.8627C10.5927 18.7614 8.75391 20.5301 8.75391 22.7089V26.0464C8.75391 28.2265 10.5927 29.9952 12.8627 29.9952H27.1376C29.4063 29.9952 31.2464 28.2265 31.2464 26.0464V22.7089C31.2465 20.53 29.4065 18.7614 27.1377 18.7614ZM14.9864 22.1489H13.724V27.3764H12.5028V22.1489H11.2403V21.2576H14.9865C14.9864 21.2576 14.9864 22.1489 14.9864 22.1489ZM18.7539 27.4489H17.4377V26.9064C17.1928 27.1064 16.9415 27.2601 16.6765 27.3627C16.4152 27.4702 16.1602 27.5214 15.9128 27.5214C15.6078 27.5214 15.3803 27.4477 15.2253 27.2989C15.0728 27.1527 14.9941 26.9328 14.9941 26.6389V22.5115H16.3103V26.2977C16.3103 26.4152 16.3378 26.4978 16.3903 26.5502C16.4479 26.6039 16.5391 26.6277 16.6617 26.6277C16.7567 26.6277 16.8816 26.5939 17.0291 26.5239C17.1778 26.4551 17.3141 26.3676 17.4379 26.2589V22.5101H18.7541C18.7539 22.5101 18.7539 27.4489 18.7539 27.4489ZM23.7364 26.5089C23.7364 26.8327 23.6338 27.0788 23.4302 27.2527C23.2289 27.4264 22.9315 27.5114 22.5477 27.5114C22.2915 27.5114 22.064 27.4788 21.8664 27.4126C21.6677 27.3465 21.4802 27.2439 21.3102 27.1026V27.4526H19.9964V21.2576H21.3102V23.2539C21.4877 23.1165 21.6739 23.0089 21.8676 22.9364C22.0663 22.8627 22.2664 22.8277 22.4677 22.8277C22.8789 22.8277 23.1927 22.924 23.4089 23.1177C23.6276 23.3127 23.7364 23.5989 23.7364 23.9727C23.7364 23.9726 23.7364 26.5089 23.7364 26.5089ZM28.744 25.1151H26.319V26.0076C26.319 26.2564 26.3589 26.4288 26.4427 26.5263C26.5277 26.6226 26.6715 26.6701 26.8727 26.6701C27.0853 26.6701 27.2303 26.6289 27.3153 26.5476C27.3978 26.4651 27.4428 26.2863 27.4428 26.0063V25.7913H28.7466V26.0338C28.7466 26.5188 28.5903 26.8839 28.2678 27.1301C27.9503 27.375 27.4752 27.4975 26.844 27.4975C26.2753 27.4975 25.8278 27.3675 25.5016 27.1075C25.1766 26.8501 25.0116 26.4901 25.0116 26.035V23.9075C25.0116 23.4987 25.1916 23.1612 25.5516 22.9025C25.9104 22.6451 26.3703 22.5163 26.9391 22.5163C27.519 22.5163 27.9653 22.6363 28.2778 22.8751C28.5891 23.1138 28.7441 23.4588 28.7441 23.9064C28.744 23.9064 28.744 25.1151 28.744 25.1151ZM14.279 16.2651H15.7703V12.6313L17.5065 7.50635H15.9902L15.0677 11.0089H14.9727L14.0052 7.50635H12.5014L14.2788 12.7951C14.279 12.7951 14.279 16.2651 14.279 16.2651ZM21.8539 23.5525L21.5777 23.5976L21.3089 23.7364V26.5839C21.414 26.6576 21.5176 26.7139 21.6177 26.7451L21.9315 26.7938C22.0915 26.7938 22.2078 26.7625 22.2827 26.6963C22.3565 26.6326 22.3952 26.5276 22.3952 26.3838V24.0225C22.3952 23.8663 22.3514 23.75 22.259 23.6713C22.164 23.5926 22.0302 23.5525 21.8539 23.5525Z" fill="#4C75E6"/>
<path d="M26.9425 23.3447C26.7399 23.3447 26.5962 23.3873 26.5075 23.4748C26.42 23.5585 26.3774 23.701 26.3774 23.8997V24.3773H27.4987V23.8997C27.4987 23.701 27.4524 23.5597 27.365 23.4748C27.2786 23.3873 27.135 23.3447 26.9425 23.3447Z" fill="white"/>
</svg>
