<svg width="40" height="40" viewBox="0 0 40 40" fill="none" xmlns="http://www.w3.org/2000/svg">
<path d="M19.9999 0C31.0462 0 40 8.95499 40 20.0001C40 31.0464 31.0462 40 19.9999 40C8.95362 40 0 31.0462 0 20.0001C0 8.95499 8.95376 0 19.9999 0Z" fill="white"/>
<path d="M32.5038 13.4741C31.6301 13.8515 30.69 14.1053 29.7038 14.2203C30.7114 13.634 31.4839 12.7078 31.8476 11.6016C30.9051 12.1454 29.8626 12.5392 28.7513 12.7503C27.8626 11.8316 26.5963 11.2578 25.1939 11.2578C22.5039 11.2578 20.3214 13.3741 20.3214 15.9865C20.3214 16.3578 20.364 16.719 20.4476 17.0653C16.3976 16.8679 12.8051 14.984 10.4027 12.1228C9.98263 12.8216 9.74262 13.6328 9.74262 14.5003C9.74262 16.1403 10.6026 17.5903 11.9101 18.4366C11.1102 18.4116 10.3601 18.2003 9.70143 17.8441V17.9041C9.70143 20.1966 11.3814 22.1079 13.6114 22.5429C13.2026 22.6504 12.7726 22.7092 12.3276 22.7092C12.0138 22.7092 11.7088 22.6805 11.4113 22.6242C12.0312 24.5042 13.8313 25.8716 15.9651 25.9092C14.2964 27.1792 12.1951 27.9342 9.91137 27.9342C9.51757 27.9342 9.13009 27.9117 8.74756 27.8681C10.9063 29.2105 13.4664 29.9943 16.2201 29.9943C25.1851 29.9943 30.0876 22.7843 30.0876 16.5342L30.0739 15.9217C31.0238 15.2566 31.8501 14.4241 32.5038 13.4741Z" fill="#4C75E6"/>
</svg>
