<svg width="40" height="40" viewBox="0 0 40 40" fill="none" xmlns="http://www.w3.org/2000/svg">
<path d="M19.9999 0C31.0462 0 40 8.95499 40 20.0001C40 31.0451 31.0462 40 19.9999 40C8.95362 40 0 31.045 0 20.0001C0 8.95513 8.95376 0 19.9999 0Z" fill="white"/>
<path d="M11.27 27.4799H15.0151V14.9974H11.27V27.4799ZM25.8601 14.565C24.0426 14.565 22.4163 15.2288 21.2627 16.6938V14.9564H17.5039V27.4801H21.2627V20.7076C21.2627 19.2763 22.5739 17.88 24.2164 17.88C25.8589 17.88 26.2639 19.2763 26.2639 20.6726V27.4788H30.009V20.3938C30.0088 15.4725 27.6789 14.565 25.8601 14.565ZM13.1251 13.75C14.1601 13.75 15.0001 12.9099 15.0001 11.8749C15.0001 10.8399 14.1601 10 13.1251 10C12.09 10 11.25 10.84 11.25 11.8751C11.25 12.9101 12.09 13.75 13.1251 13.75Z" fill="#4C75E6"/>
</svg>
