<svg width="40" height="40" viewBox="0 0 40 40" fill="none" xmlns="http://www.w3.org/2000/svg">
<circle cx="20" cy="20" r="20" fill="white"/>
<path d="M23.215 11.3436C24.0428 10.4573 24.6028 9.22693 24.4495 8C23.2569 8.04256 21.8115 8.70006 20.9555 9.58621C20.1881 10.3707 19.5163 11.6245 19.6956 12.8274C21.0263 12.9174 22.3858 12.2284 23.215 11.3436ZM25.7548 19.8168C25.7294 17.0661 27.9326 15.745 28.0302 15.6812C26.7915 13.8133 24.8625 13.5577 24.1755 13.5289C22.5329 13.3564 20.9727 14.5236 20.1388 14.5236C19.3083 14.5236 18.0236 13.5515 16.6613 13.5776C14.8704 13.6071 13.2202 14.65 12.3004 16.3028C10.4399 19.6279 11.8235 24.5535 13.6364 27.2506C14.5226 28.571 15.5778 30.0521 16.9635 29.9986C18.301 29.945 18.8053 29.1089 20.419 29.1089C22.0334 29.1089 22.4855 29.9986 23.8979 29.9718C25.335 29.945 26.2446 28.626 27.1233 27.3015C28.14 25.7702 28.5591 24.2877 28.5831 24.2128C28.5522 24.1949 25.7843 23.1061 25.7548 19.8168Z" fill="#4C75E6"/>
</svg>
