<svg width="40" height="40" viewBox="0 0 40 40" fill="none" xmlns="http://www.w3.org/2000/svg">
<circle cx="20" cy="20" r="20" fill="white"/>
<g clip-path="url(#clip0)">
<path d="M12.0805 15.8838C11.3203 15.8838 10.7041 16.4223 10.7041 17.0881V22.2393C10.7041 22.9044 11.3204 23.4443 12.0805 23.4443C12.84 23.4443 13.4569 22.9045 13.4569 22.2393V17.0881C13.457 16.4229 12.8401 15.8838 12.0805 15.8838ZM22.4916 10.8462L23.6945 9.64674C23.8432 9.49872 23.8432 9.25979 23.6945 9.11101C23.5458 8.963 23.3062 8.963 23.1574 9.11101L21.6771 10.5888C21.1476 10.4593 20.5892 10.3877 20.008 10.3877C19.4338 10.3877 18.8802 10.4587 18.3568 10.5847L16.8791 9.11109C16.7304 8.96307 16.4901 8.96307 16.3421 9.11109C16.1934 9.25911 16.1934 9.49872 16.3421 9.64682L17.5388 10.8401C15.542 11.6058 14.1545 13.2659 14.1545 15.1952C14.1545 15.2187 25.8601 15.1966 25.8601 15.1952C25.8608 13.2707 24.4809 11.6147 22.4916 10.8462ZM18.2859 13.8216C17.9051 13.8216 17.5973 13.5145 17.5973 13.1344C17.5973 12.755 17.9051 12.4472 18.2859 12.4472C18.6667 12.4472 18.9745 12.7549 18.9745 13.1344C18.9752 13.5138 18.6653 13.8216 18.2859 13.8216ZM21.7294 13.8216C21.3487 13.8216 21.0409 13.5145 21.0409 13.1344C21.0409 12.755 21.3486 12.4472 21.7294 12.4472C22.1102 12.4472 22.418 12.7549 22.418 13.1344C22.418 13.5138 22.1095 13.8216 21.7294 13.8216ZM27.9196 15.8838C27.1594 15.8838 26.5425 16.4223 26.5425 17.0881V22.2393C26.5425 22.9044 27.1595 23.4443 27.9196 23.4443C28.6798 23.4443 29.2954 22.9038 29.2954 22.2393V17.0881C29.2954 16.4229 28.6784 15.8838 27.9196 15.8838ZM14.1545 24.1253C14.1545 25.2614 15.0758 26.1814 16.2133 26.1855V29.795C16.2133 30.4608 16.8296 31 17.5897 31C18.3492 31 18.9655 30.4609 18.9655 29.795V26.1855H21.034V29.795C21.034 30.4608 21.6502 31 22.4104 31C23.1698 31 23.7861 30.4609 23.7861 29.795V26.1855H23.795C24.936 26.1855 25.8607 25.2628 25.8607 24.1253V15.8818H14.1552V24.1253H14.1545Z" fill="#4C75E6"/>
</g>
<defs>
<clipPath id="clip0">
<rect x="9" y="9" width="22" height="22" fill="white"/>
</clipPath>
</defs>
</svg>
